<?xml version="1.0" encoding="iso-8859-1"?>
<!-- Generator: Adobe Illustrator 19.0.0, SVG Export Plug-In . SVG Version: 6.00 Build 0)  -->
<svg version="1.1" id="Layer_1" xmlns="http://www.w3.org/2000/svg" xmlns:xlink="http://www.w3.org/1999/xlink" x="0px" y="0px"
	 viewBox="0 0 512 512" style="enable-background:new 0 0 512 512;" xml:space="preserve">
<g transform="translate(1 1)">
	<path style="fill:#E2E3E5;" d="M459.8,442.733c0-25.6-14.507-49.493-37.547-61.44l-93.867-40.96
		c-5.12-2.56-9.387-7.68-11.947-13.653c-3.413-5.973,0.853-11.947,6.827-11.947h66.56c0,0,23.893,2.56,42.667-5.973
		c11.093-5.12,14.507-18.773,7.68-28.16c-20.48-29.013-61.44-95.573-63.147-165.547c0,0-2.56-106.667-107.52-107.52
		c-61.44,0.853-90.453,36.693-104.107,66.56c-7.68,17.067-11.093,34.987-11.947,53.76c-4.267,66.56-38.4,128.853-53.76,154.453
		c-5.12,8.533-2.56,20.48,5.973,25.6c14.507,8.533,32.427,6.827,32.427,6.827h67.413c6.827,0,9.387,8.533,4.267,12.8
		c-4.267,3.413-8.533,5.973-10.24,7.68l-79.36,46.08c-22.187,11.947-35.84,34.987-35.84,59.733v10.24v8.533
		c0,23.893,84.48,42.667,187.733,42.667S459.8,483.693,459.8,459.8v-8.533V442.733z"/>
	<path style="fill:#CCCCCC;" d="M434.2,442.733c0-25.6-14.507-49.493-37.547-61.44l-93.867-40.96
		c-5.12-2.56-9.387-7.68-11.947-13.653c-3.413-5.973,0.853-11.947,6.827-11.947h66.56c0,0,23.893,2.56,42.667-5.973
		c11.093-5.12,14.507-18.773,7.68-28.16c-20.48-29.013-61.44-95.573-63.147-165.547c0,0-2.56-106.667-107.52-107.52
		c-61.44,0.853-90.453,36.693-104.107,66.56c-7.68,17.067-11.093,34.987-11.947,53.76c-4.267,66.56-38.4,128.853-53.76,154.453
		c-5.12,8.533-2.56,20.48,5.973,25.6c14.507,8.533,32.427,6.827,32.427,6.827h67.413c6.827,0,9.387,8.533,4.267,12.8
		c-4.267,3.413-8.533,5.973-10.24,7.68l-79.36,46.08c-22.187,11.947-35.84,34.987-35.84,59.733v10.24v8.533
		c0,23.893,84.48,42.667,187.733,42.667S434.2,483.693,434.2,459.8v-8.533V442.733z"/>
	<path style="fill:#E2E3E5;" d="M434.2,442.733c0-25.6-14.507-49.493-37.547-61.44l-93.867-40.96
		c-5.12-2.56-9.387-7.68-11.947-13.653c-3.413-5.973,0.853-11.947,6.827-11.947h40.96c0,0,23.893,2.56,42.667-5.973
		c11.093-5.12,14.507-18.773,7.68-28.16c-20.48-29.013-61.44-95.573-63.147-165.547c0,0,9.387-106.667-96.427-107.52
		c-61.44,0.853-75.947,36.693-89.6,66.56c-7.68,17.067-11.093,34.987-11.947,53.76c-4.267,66.56-38.4,128.853-53.76,154.453
		c-5.12,8.533-2.56,20.48,5.973,25.6c14.507,8.533,32.427,6.827,32.427,6.827h67.413c6.827,0,9.387,8.533,4.267,12.8
		c-4.267,3.413-8.533,5.973-10.24,7.68l-79.36,46.08c-22.187,11.947-35.84,34.987-35.84,59.733v10.24v8.533
		c0,23.893,84.48,42.667,187.733,42.667S434.2,483.693,434.2,459.8v-8.533V442.733z"/>
	<path style="fill:#B6B6B6;" d="M246.467,511C178.2,511,50.2,499.907,50.2,459.8v-18.773c0-28.16,15.36-53.76,40.107-67.413
		l79.36-46.08c0.853,0,1.707-0.853,5.973-4.267h-63.147c-3.413,0-21.333,1.707-36.693-7.68c-5.973-3.413-10.24-9.387-11.947-16.213
		c-1.707-6.827-0.853-14.507,3.413-21.333C80.92,254.147,115.053,192.707,119.32,127c1.707-22.187,5.973-40.96,12.8-56.32
		C146.627,38.253,178.2-1,243.907-1C356.547-0.147,359.96,114.2,359.96,115.053c1.707,68.267,43.52,134.827,61.44,160.427
		c5.12,6.827,5.973,15.36,4.267,23.04c-2.56,7.68-7.68,14.507-15.36,17.92c-20.48,8.533-46.08,6.827-46.933,5.973l-65.707,0.853
		c2.56,4.267,5.973,7.68,8.533,9.387l93.867,40.96c26.453,13.653,42.667,40.107,42.667,69.12V459.8
		C442.733,499.907,314.733,511,246.467,511z M111.64,306.2h67.413c6.827,0,12.8,4.267,14.507,10.24c2.56,5.973,0,12.8-5.12,17.067
		c-7.68,5.973-11.093,7.68-11.947,8.533l-79.36,46.08c-17.92,10.24-29.867,30.72-29.867,52.907V459.8
		c0,11.947,63.147,34.133,179.2,34.133s179.2-22.187,179.2-34.133v-17.067c0-23.04-12.8-43.52-33.28-53.76l-93.867-40.96
		c-8.533-4.267-13.653-11.947-16.213-17.92c-2.56-5.12-2.56-11.093,0.853-16.213s8.533-7.68,14.507-7.68h66.56
		c0.853,0,23.04,1.707,39.253-5.12c2.56-0.853,5.12-3.413,5.973-6.827c0.853-3.413,0-5.973-1.707-8.533
		c-18.773-27.307-63.147-97.28-64.853-169.813c0-4.267-3.413-98.987-98.987-99.84C186.733,16.92,160.28,50.2,147.48,77.507
		c-5.973,13.653-10.24,30.72-11.093,50.347c-4.267,69.12-40.107,133.973-55.467,158.72c-1.707,2.56-1.707,5.12-0.853,7.68
		c0,3.413,1.707,5.12,4.267,6.827c11.093,6.827,26.453,5.12,26.453,5.12H111.64z"/>
</g>
<g>
</g>
<g>
</g>
<g>
</g>
<g>
</g>
<g>
</g>
<g>
</g>
<g>
</g>
<g>
</g>
<g>
</g>
<g>
</g>
<g>
</g>
<g>
</g>
<g>
</g>
<g>
</g>
<g>
</g>
</svg>
